<?xml version="1.0" encoding="utf-8"?>
<!-- Generator: Adobe Illustrator 27.5.0, SVG Export Plug-In . SVG Version: 6.00 Build 0)  -->
<svg version="1.1" xmlns="http://www.w3.org/2000/svg" xmlns:xlink="http://www.w3.org/1999/xlink" x="0px" y="0px"
	 viewBox="0 0 3710 3710" style="enable-background:new 0 0 3710 3710;" xml:space="preserve">
<g id="Background">
	<g>
		<g>
			<rect style="fill:#FFFFFF;" width="3710" height="3710"/>
		</g>
	</g>
</g>
<g id="Illustration">
	<g>
		<path style="fill:#F4F7FA;" d="M1644.094,476.546C1276.849,483.033,708.65,622.666,545.1,981.497
			c-57.121,125.326-53.254,309.571-45.521,678.059c2.273,108.308,6.043,266.17,32.515,462.04
			c54.991,406.885,92.425,683.877,234.105,845.166c355.006,404.139,1637.373,392.461,2184.98-335.122
			c298.723-396.901,344.678-961.506,71.532-1428.124C2721.984,689.78,2135.748,467.862,1644.094,476.546z"/>
		<g>
			<g>
				<g>
					<defs>
						<path id="SVGID_1_" d="M2630.106,1110.571c-32.723-22.833-80.334-32.823-119.851-32.379
							c-280.126,3.148-272.943,588.625-219.571,715.217c53.372,126.592,29.225,171.586-184.523,257.669
							c-213.748,86.083-97.759,208.495-64.725,282.939c33.034,74.444,91.289,134.836-62.352,224.125
							c-153.641,89.289-94.2,131.906-94.2,131.906s319.658,277.403,295.437,182.171c-24.222-95.232-6.692-243.472,256.779-276.267
							c113.482-14.126,283.405-82.774,312.003-207.879c6.66-29.132,9.353-73.014,0.098-101.84
							c-12.838-39.986-42.234-69.912-60.244-107.06c-41.97-86.571,39.489-159.186,84.554-223.056
							c23.527-33.344,46.976-67.487,64.033-104.703c35.414-77.265,13.379-155.201-37.385-219.573
							c-24.342-30.868-57.29-63.035-69.936-101.199c-13.584-40.997-9.434-98.876-10.557-142.109
							c-0.881-33.904-0.431-67.79-5.107-101.467C2705.861,1224.42,2684.81,1148.741,2630.106,1110.571z"/>
					</defs>
					
						<linearGradient id="SVGID_00000005980609496509353030000016107674767275981452_" gradientUnits="userSpaceOnUse" x1="2451.5708" y1="950.6255" x2="2203.6404" y2="4559.3696">
						<stop  offset="0" style="stop-color:#FFC444"/>
						<stop  offset="0.9964" style="stop-color:#F36F56"/>
					</linearGradient>
					
						<use xlink:href="#SVGID_1_"  style="overflow:visible;fill:url(#SVGID_00000005980609496509353030000016107674767275981452_);"/>
					<clipPath id="SVGID_00000172400347086563580670000003004181240419621564_">
						<use xlink:href="#SVGID_1_"  style="overflow:visible;"/>
					</clipPath>
					<g style="opacity:0.8;clip-path:url(#SVGID_00000172400347086563580670000003004181240419621564_);">
						<g>
							<path style="fill:#FFFFFF;" d="M1875.602,2861.242c-1.85,0.842-4.083,0.211-5.199-1.556c-1.22-1.929-0.645-4.482,1.285-5.7
								c1.184-0.749,119.961-76.247,249.611-195.168c119.462-109.578,272.864-279.49,325.248-466.664
								c43.752-156.328,74.415-411.336,84.129-699.637c8.71-258.523-2.15-448.301-17.682-482.422
								c-0.946-2.078-0.029-4.527,2.049-5.473c2.077-0.946,4.527-0.029,5.473,2.049c18.168,39.913,26.259,253.445,18.419,486.124
								c-9.735,288.933-40.509,544.651-84.429,701.586c-52.923,189.094-207.433,360.3-327.73,470.628
								c-130.183,119.393-249.485,195.212-250.674,195.963C1875.94,2861.075,1875.772,2861.165,1875.602,2861.242z"/>
						</g>
						<g>
							<path style="fill:#FFFFFF;" d="M2534.3,1542.196c-2.066,0.941-4.285,0.525-5.24-1.538
								c-1.266-2.732-128.028-273.526-267.094-325.594c-2.137-0.799-3.166-3.06-2.365-5.197c0.8-2.138,3.208-3.16,5.346-2.36
								c142.245,53.255,266.375,318.367,271.599,329.647c0.958,2.07-0.144,4.084-2.221,5.03
								C2534.316,1542.189,2534.307,1542.193,2534.3,1542.196z"/>
						</g>
						<g>
							<path style="fill:#FFFFFF;" d="M2510.283,1870.283c-1.542,0.702-3.425,0.403-4.676-0.882
								c-1.59-1.636-1.553-4.253,0.083-5.843c0.709-0.689,71.998-69.675,161.992-130.042
								c121.596-81.563,217.628-109.432,285.432-82.832c2.125,0.833,3.17,3.231,2.337,5.356c-0.836,2.124-3.231,3.171-5.356,2.337
								c-155.995-61.196-435.837,208.377-438.646,211.107C2511.101,1869.825,2510.705,1870.091,2510.283,1870.283z"/>
						</g>
						<g>
							<path style="fill:#FFFFFF;" d="M2231.88,2559.738c-0.404,0.184-0.844,0.304-1.311,0.35c-2.271,0.222-4.292-1.439-4.513-3.711
								c-0.118-1.194-12.081-120.867-47.54-245.081c-32.511-113.886-91.915-255.009-190.292-280.57
								c-2.209-0.574-3.534-2.829-2.96-5.039c0.573-2.21,2.83-3.536,5.039-2.96c82.031,21.314,148.04,117.675,196.19,286.407
								c35.649,124.921,47.671,245.238,47.788,246.44C2234.457,2557.378,2233.444,2559.026,2231.88,2559.738z"/>
						</g>
						<g>
							<path style="fill:#FFFFFF;" d="M2386.141,2352.14c-1.618,0.737-3.591,0.364-4.821-1.042c-1.503-1.718-1.329-4.328,0.389-5.83
								c12.452-10.891,306.387-266.573,430.184-254.632c2.272,0.219,3.937,2.239,3.717,4.51c-0.219,2.272-2.238,3.938-4.51,3.717
								c-120.292-11.6-420.928,249.983-423.95,252.625C2386.838,2351.761,2386.498,2351.978,2386.141,2352.14z"/>
						</g>
					</g>
				</g>
			</g>
			<g>
				<g>
					<defs>
						<path id="SVGID_00000034072354451755961130000005048556043829335957_" d="M3233.497,1399.826
							c-20.323-34.338-59.518-63.155-95.668-79.122c-256.261-113.187-492.276,422.66-496.145,559.989
							s-44.487,168.276-274.691,158.072c-230.205-10.204-175.351,149.261-176.126,230.702
							c-0.775,81.441,27.226,160.54-149.601,178.156c-176.827,17.615-140.383,81.029-140.383,81.029
							s176.013,384.907,193.421,288.197c17.408-96.71,94.776-224.368,348.16-145.064c109.138,34.157,292.232,42.073,370.09-59.943
							c18.13-23.755,38.761-62.579,42.28-92.648c4.881-41.712-9.476-81.127-10.478-122.399
							c-2.335-96.179,101.889-128.524,169.365-167.984c35.227-20.601,70.714-41.962,101.656-68.767
							c64.241-55.651,76.474-135.713,56.94-215.332c-9.367-38.179-26.028-81.105-21.727-121.08
							c4.621-42.941,32.376-93.901,49.265-133.714c13.244-31.223,27.692-61.877,37.388-94.466
							C3255.279,1534.831,3267.472,1457.23,3233.497,1399.826z"/>
					</defs>
					
						<linearGradient id="SVGID_00000038382573250783003380000013236690339134298549_" gradientUnits="userSpaceOnUse" x1="1897.7775" y1="2068.7781" x2="3255" y2="2068.7781">
						<stop  offset="0" style="stop-color:#FF9085"/>
						<stop  offset="1" style="stop-color:#FB6FBB"/>
					</linearGradient>
					
						<use xlink:href="#SVGID_00000034072354451755961130000005048556043829335957_"  style="overflow:visible;fill:url(#SVGID_00000038382573250783003380000013236690339134298549_);"/>
					<clipPath id="SVGID_00000119798797651252002780000011971726870355217302_">
						<use xlink:href="#SVGID_00000034072354451755961130000005048556043829335957_"  style="overflow:visible;"/>
					</clipPath>
					<g style="opacity:0.8;clip-path:url(#SVGID_00000119798797651252002780000011971726870355217302_);">
						<g>
							<path style="fill:#FFFFFF;" d="M1821.513,2680.618c-2.032,0-3.804-1.5-4.088-3.57c-0.311-2.261,1.27-4.346,3.531-4.655
								c1.388-0.191,140.77-19.698,308.038-74.223c154.125-50.241,364.134-141.334,489.355-289.988
								c104.584-124.156,238.138-343.547,366.418-601.92c115.029-231.686,183.767-408.911,183.767-446.401
								c0-2.283,1.85-4.132,4.132-4.132c2.282,0,4.132,1.85,4.132,4.132c0,43.853-81.099,241.551-184.629,450.075
								c-128.561,258.939-262.509,478.931-367.498,603.569c-126.506,150.178-338.061,241.991-493.256,292.568
								c-167.948,54.732-307.941,74.314-309.334,74.505C1821.889,2680.606,1821.7,2680.618,1821.513,2680.618z"/>
						</g>
						<g>
							<path style="fill:#FFFFFF;" d="M2967.484,1751.806c-2.271,0-4.117-0.711-4.132-2.984
								c-0.02-3.01-3.207-301.696-108.207-406.698c-1.614-1.613-1.614-3.95,0-5.563c1.614-1.614,4.229-1.474,5.843,0.14
								c107.401,107.4,110.546,399.566,110.628,411.997c0.015,2.281-1.823,3.108-4.105,3.108
								C2967.501,1751.806,2967.492,1751.806,2967.484,1751.806z"/>
						</g>
						<g>
							<path style="fill:#FFFFFF;" d="M2809.705,2041.636c-1.695,0-3.285-1.052-3.89-2.74c-0.769-2.148,0.348-4.514,2.497-5.284
								c0.931-0.334,94.394-33.587,201.311-51.247c144.461-23.859,243.41-9.44,294.102,42.86c1.588,1.638,1.547,4.255-0.092,5.843
								c-1.641,1.587-4.255,1.547-5.843-0.091c-116.626-120.323-483.004,9.094-486.691,10.415
								C2810.638,2041.558,2810.167,2041.636,2809.705,2041.636z"/>
						</g>
						<g>
							<path style="fill:#FFFFFF;" d="M2270.687,2553.804c-0.444,0-0.895-0.073-1.339-0.225c-2.159-0.739-3.31-3.088-2.57-5.247
								c0.387-1.135,39.078-115.012,58.264-242.755c17.591-117.122,21.99-270.175-56.958-334.195
								c-1.773-1.438-2.044-4.039-0.606-5.812c1.437-1.774,4.041-2.046,5.812-0.607c65.831,53.383,85.987,168.432,59.908,341.95
								c-19.306,128.466-58.21,242.953-58.602,244.095C2274.009,2552.724,2272.405,2553.804,2270.687,2553.804z"/>
						</g>
						<g>
							<path style="fill:#FFFFFF;" d="M2497.091,2428.768c-1.778,0-3.419-1.157-3.956-2.946c-0.656-2.186,0.584-4.49,2.77-5.145
								c15.845-4.754,389.294-115.69,497.021-53.535c1.977,1.141,2.655,3.668,1.515,5.644c-1.141,1.977-3.668,2.656-5.644,1.515
								c-104.677-60.392-486.67,53.138-490.516,54.291C2497.883,2428.711,2497.483,2428.768,2497.091,2428.768z"/>
						</g>
					</g>
				</g>
			</g>
		</g>
		<g>
			<g>
				<polygon style="fill:#FFFFFF;" points="1085.531,3155.501 455,2239.578 2478.032,2077.945 3254.697,2859.663 				"/>
				<polygon style="fill:#AABBCC;" points="3198.894,2842.489 1112.261,3123.611 510.206,2256.716 636.354,2246.491 
					2463.222,2098.298 3036.161,2677.871 				"/>
				<g>
					<g>
						<polygon style="fill:#FFFFFF;" points="2253.11,2990.976 2225.886,2994.68 1519.787,2160.582 1545.222,2158.54 						"/>
					</g>
					<g>
						<path style="fill:#FFFFFF;" d="M1986.082,2691.677c-137.356,15.843-303.351-35.69-366.699-113.639
							c-62.057-76.361-0.759-148.098,133.5-161.12c132.102-12.813,290.022,35.742,355.1,109.361
							C2174.375,2601.385,2121.148,2676.099,1986.082,2691.677z M1765.011,2431.206c-119.843,11.737-174.154,75.889-118.563,143.965
							c56.62,69.336,204.33,115.168,326.633,101.188c120.486-13.772,168.37-80.294,109.329-147.371
							C2024.413,2463.1,1883.131,2419.639,1765.011,2431.206z"/>
					</g>
					<g>
						<g>
							<path style="fill:#FFFFFF;" d="M537.384,2308.399l-10.057-14.507c44.215-3.683,67.369-24.619,51.546-47.063l28.437-2.3
								C628.998,2275.11,597.506,2303.339,537.384,2308.399z"/>
						</g>
						<g>
							<path style="fill:#FFFFFF;" d="M2507.048,2142.618c-47.762,4.02-107.562-13.946-133.843-40.895l22.942-1.855
								c19.29,19.708,63.37,33.078,98.451,30.156L2507.048,2142.618z"/>
						</g>
					</g>
					<g>
						<g>
							<path style="fill:#FFFFFF;" d="M1220.431,3109.051l-30.765,4.145c-19.75-28.014-72.919-43.837-120.41-37.588l-12.303-17.747
								C1121.335,3049.461,1195.227,3073.513,1220.431,3109.051z"/>
						</g>
						<g>
							<path style="fill:#FFFFFF;" d="M3131.841,2851.526l-24.22,3.263c-29.843-30.6-14.828-62.519,35.187-69.044l14.878,15.051
								C3120.881,2805.639,3108.336,2827.511,3131.841,2851.526z"/>
						</g>
					</g>
					<g>
						<g>
							<g>
								<g>
									<path style="fill:#FFFFFF;" d="M1336.717,2842.61l-422.272,50.61l-299.017-433.595l406.282-37.843L1336.717,2842.61z
										 M933.251,2872.631l362.019-43.004l-290.65-390.426l-349.309,32.858L933.251,2872.631z"/>
								</g>
								<g>
									<path style="fill:#FFFFFF;" d="M1050.528,2769.177l-205.529,23.342l-166.027-240.75l201.091-19.856L1050.528,2769.177z
										 M863.832,2772.583l145.368-16.36l-147.18-206.052l-142.643,14.221L863.832,2772.583z"/>
								</g>
							</g>
							<g>
								<path style="fill:#FFFFFF;" d="M1230.438,2724.509l-11.91-15.96c65.68-7.298,85.752-49.138,51.898-93.545
									c-33.459-43.889-107.634-74.454-172.384-67.921l-11.364-15.229c76.731-7.668,171.957,27.963,211.963,80.161
									C1339.209,2664.947,1308.484,2715.757,1230.438,2724.509z"/>
							</g>
						</g>
						<g>
							<g>
								<g>
									<path style="fill:#FFFFFF;" d="M3025.37,2640.221l-341.044,40.875l-358.619-380.774l331.809-30.906L3025.37,2640.221z
										 M2694.962,2663.357l292.51-34.747l-340.004-343.944l-285.17,26.825L2694.962,2663.357z"/>
								</g>
								<g>
									<path style="fill:#FFFFFF;" d="M2940.381,2554.551l-162.494,18.454l-201.865-208.559l160.084-15.807L2940.381,2554.551z
										 M2787.959,2556.041l114.984-12.94l-176.732-178.78l-113.505,11.316L2787.959,2556.041z"/>
								</g>
							</g>
							<g>
								<path style="fill:#FFFFFF;" d="M2603.366,2570.551c-66.51,7.458-159.236-26.403-204.373-75.099
									c-44.552-48.064-25.542-92.19,40.102-98.75l13.009,13.768c-55.301,5.579-65.987,42.127-28.531,82.378
									c37.867,40.693,110.298,69.54,166.209,63.327L2603.366,2570.551z"/>
							</g>
						</g>
					</g>
				</g>
				<path style="opacity:0.4;fill:#AABBCC;" d="M3198.894,2842.489l-2086.633,281.122l-602.055-866.895l126.147-10.225
					c101.238,17.985,209.254,61.351,279.707,157.403c166.794,227.348,387.47,313.319,591.032,277.205
					c203.597-36.115,473.985-46.231,697.49,73.426s419.307-38.073,709.384-73.426c44.528-5.439,85.21-6.055,122.196-3.228
					L3198.894,2842.489z"/>
			</g>
			<polygon style="fill:#D8DEE8;" points="3252.87,2859.677 3252.87,2910.44 1085.711,3209.582 1084.079,3155.501 			"/>
			<polygon style="fill:#D1D2D3;" points="456.204,2239.638 456.204,2290.401 1086.999,3209.582 1086.011,3155.501 			"/>
		</g>
		<g>
			
				<linearGradient id="SVGID_00000042704105065254811350000013448413054927691174_" gradientUnits="userSpaceOnUse" x1="691.7068" y1="2604.1516" x2="647.032" y2="2747.1108">
				<stop  offset="0" style="stop-color:#311944"/>
				<stop  offset="1" style="stop-color:#893976"/>
			</linearGradient>
			<path style="fill:url(#SVGID_00000042704105065254811350000013448413054927691174_);" d="M661.267,2636.821
				c0,0-17.756,20.806-8.129,39.128c9.627,18.322,34.16,40.06,31.054,26.085c-3.105-13.974-9.113-44.635-9.113-44.635
				L661.267,2636.821z"/>
			<g>
				
					<linearGradient id="SVGID_00000026156158360546365610000008443501214400595896_" gradientUnits="userSpaceOnUse" x1="1363.2936" y1="1853.2332" x2="1593.2052" y2="1361.9694" gradientTransform="matrix(1 0 0 1 -267.7422 0)">
					<stop  offset="0" style="stop-color:#444B8C"/>
					<stop  offset="0.9964" style="stop-color:#26264F"/>
				</linearGradient>
				<path style="fill:url(#SVGID_00000026156158360546365610000008443501214400595896_);" d="M913.731,1654.289
					c-8.127,27.556,4.995,54.244,16.232,77.097c21.862,44.467,78.883,99.658,135.937,93.332
					c63.693-7.062,71.069-84.537,129.851-87.244c49.316-2.273,59.503,51.547,123.764,64.927
					c81.414,16.951,155.546-50.6,164.343-58.841c56.207-52.66,92.629-143.587,62.897-223.183
					c-3.035-8.124-32.908-85.182-89.273-93.328c-47.595-6.877-65.263,42.437-139.996,48.694c-48.83,4.09-57.422-15.613-91.301-4.06
					c-53.888,18.38-47.904,73.603-91.302,85.218c-44.986,12.043-64.899-43.687-148.111-50.724
					c-11.49-0.972-78.562-6.642-97.388,28.403c-7.576,14.103-8.513,36.985,0.935,53.599c9.772,17.183,25.579,18.739,29.498,35.676
					C922.53,1635.575,916.943,1643.399,913.731,1654.289z"/>
				
					<linearGradient id="SVGID_00000029747715224543492620000001383898403429258422_" gradientUnits="userSpaceOnUse" x1="1184.0431" y1="1585.1626" x2="1031.293" y2="2073.9636">
					<stop  offset="0" style="stop-color:#FFC444"/>
					<stop  offset="0.9964" style="stop-color:#F36F56"/>
				</linearGradient>
				<path style="fill:url(#SVGID_00000029747715224543492620000001383898403429258422_);" d="M1022.427,1726.93
					c0,0,61.227,19.068,85.242,112.013c24.015,92.945,120.255-93.499,120.255-93.499s21.611-5.937,15.09,25.739
					c-6.521,31.675-88.039,173.283-144.402,147.198c-56.364-26.086-72.201-67.543-72.201-67.543L1022.427,1726.93z"/>
				
					<linearGradient id="SVGID_00000104705303753393852890000010407922037731090086_" gradientUnits="userSpaceOnUse" x1="1047.886" y1="2658.9666" x2="1010.0663" y2="2779.9897">
					<stop  offset="0" style="stop-color:#311944"/>
					<stop  offset="1" style="stop-color:#893976"/>
				</linearGradient>
				<path style="fill:url(#SVGID_00000104705303753393852890000010407922037731090086_);" d="M1003.961,2692.896
					c0,0-16.679,8.208,6.922,27.461c23.601,19.253,47.203,38.818,46.271,24.222c-0.932-14.595-29.444-56.208-29.444-56.208
					L1003.961,2692.896z"/>
				
					<linearGradient id="SVGID_00000017513653029103693930000002581656134695118519_" gradientUnits="userSpaceOnUse" x1="1131.7795" y1="2332.0203" x2="620.4614" y2="1211.8953">
					<stop  offset="0" style="stop-color:#AA80F9"/>
					<stop  offset="0.9964" style="stop-color:#6165D7"/>
				</linearGradient>
				<path style="fill:url(#SVGID_00000017513653029103693930000002581656134695118519_);" d="M841.218,1726.481
					c0,0,185.067-24.082,207.241,16.783s-17.497,236.695-4.353,298.004c13.144,61.31-210.77,30.931-223.35,15.198
					C808.176,2040.733,749.865,1746.064,841.218,1726.481z"/>
				<g>
					
						<linearGradient id="SVGID_00000160184788938103073680000006980788489482910398_" gradientUnits="userSpaceOnUse" x1="1194.5037" y1="1737.7826" x2="1196.3669" y2="2138.384">
						<stop  offset="0.0036" style="stop-color:#E38DDD"/>
						<stop  offset="1" style="stop-color:#9571F6"/>
					</linearGradient>
					<polygon style="fill:url(#SVGID_00000160184788938103073680000006980788489482910398_);" points="1194.071,1762.835 
						1219.658,1760.421 1193.887,1487.289 1168.301,1489.703 					"/>
					
						<linearGradient id="SVGID_00000182503926023148517340000017689082789089909424_" gradientUnits="userSpaceOnUse" x1="1070.8149" y1="1646.5491" x2="1186.1355" y2="1646.5491" gradientTransform="matrix(-0.8253 -0.5647 -0.5647 0.8253 3072.1658 1084.1176)">
						<stop  offset="0" style="stop-color:#AA80F9"/>
						<stop  offset="0.9964" style="stop-color:#6165D7"/>
					</linearGradient>
					<path style="fill:url(#SVGID_00000182503926023148517340000017689082789089909424_);" d="M1194.735,1735.668l19.19-1.811
						c7.065-0.667,13.333,4.521,14,11.586l10.984,116.417c0.667,7.065-4.52,13.334-11.586,14l-19.19,1.811
						c-7.066,0.667-13.333-4.521-14-11.586l-10.984-116.417C1182.482,1742.603,1187.669,1736.335,1194.735,1735.668z"/>
					<g>
						<g>
							
								<rect x="1254.224" y="1118.338" transform="matrix(0.9956 -0.0939 0.0939 0.9956 -112.2968 123.6353)" style="fill:#D8DEE8;" width="7.2" height="273.898"/>
						</g>
						<g>
							
								<rect x="1221.25" y="1090.145" transform="matrix(0.9956 -0.0939 0.0939 0.9956 -112.3957 120.5551)" style="fill:#D8DEE8;" width="7.2" height="328.956"/>
						</g>
						<g>
							
								<rect x="1188.629" y="1093.223" transform="matrix(0.9956 -0.0939 0.0939 0.9956 -112.8274 117.5039)" style="fill:#D8DEE8;" width="7.2" height="328.956"/>
						</g>
						<g>
							
								<rect x="1156.009" y="1096.3" transform="matrix(0.9956 -0.0939 0.0939 0.9956 -113.262 114.4562)" style="fill:#D8DEE8;" width="7.2" height="328.956"/>
						</g>
						<g>
							
								<rect x="1123.388" y="1099.378" transform="matrix(0.9956 -0.0939 0.0939 0.9956 -113.6951 111.4067)" style="fill:#D8DEE8;" width="7.2" height="328.956"/>
						</g>
						<g>
							
								<rect x="1090.767" y="1102.456" transform="matrix(0.9956 -0.0939 0.0939 0.9956 -114.1107 108.339)" style="fill:#D8DEE8;" width="7.2" height="328.955"/>
						</g>
						<g>
							
								<rect x="1058.499" y="1136.805" transform="matrix(0.9956 -0.0939 0.0939 0.9956 -114.9096 105.356)" style="fill:#D8DEE8;" width="7.2" height="273.898"/>
						</g>
					</g>
					<g>
						<g>
							
								<rect x="1048.766" y="1355.159" transform="matrix(0.9956 -0.0939 0.0939 0.9956 -122.4739 115.6871)" style="fill:#D8DEE8;" width="237.648" height="7.2"/>
						</g>
						<g>
							
								<rect x="1025.048" y="1322.232" transform="matrix(0.9956 -0.0939 0.0939 0.9956 -119.3763 115.5533)" style="fill:#D8DEE8;" width="285.421" height="7.2"/>
						</g>
						<g>
							
								<rect x="1021.971" y="1289.611" transform="matrix(0.9956 -0.0939 0.0939 0.9956 -116.327 115.1214)" style="fill:#D8DEE8;" width="285.42" height="7.2"/>
						</g>
						<g>
							
								<rect x="1018.893" y="1256.99" transform="matrix(0.9956 -0.0939 0.0939 0.9956 -113.2778 114.6896)" style="fill:#D8DEE8;" width="285.421" height="7.2"/>
						</g>
						<g>
							
								<rect x="1015.815" y="1224.37" transform="matrix(0.9956 -0.0939 0.0939 0.9956 -110.2254 114.2542)" style="fill:#D8DEE8;" width="285.42" height="7.2"/>
						</g>
						<g>
							
								<rect x="1012.737" y="1191.749" transform="matrix(0.9956 -0.0939 0.0939 0.9956 -107.174 113.8199)" style="fill:#D8DEE8;" width="285.421" height="7.2"/>
						</g>
						<g>
							
								<rect x="1030.298" y="1159.435" transform="matrix(0.9956 -0.0939 0.0939 0.9956 -104.1695 113.0864)" style="fill:#D8DEE8;" width="237.648" height="7.2"/>
						</g>
					</g>
					
						<linearGradient id="SVGID_00000085209194943729954890000005033191171514114971_" gradientUnits="userSpaceOnUse" x1="1292.8849" y1="1247.5959" x2="1647.4852" y2="1247.5959" gradientTransform="matrix(-0.8253 -0.5647 -0.5647 0.8253 3072.1658 1084.1176)">
						<stop  offset="0" style="stop-color:#AA80F9"/>
						<stop  offset="0.9964" style="stop-color:#6165D7"/>
					</linearGradient>
					<path style="fill:url(#SVGID_00000085209194943729954890000005033191171514114971_);" d="M1107.791,1440.969
						c29.938,13.866,50.251,42.597,53.35,75.445l0.453,4.8c0.562,5.952,5.842,10.322,11.794,9.761l23.221-2.191
						c5.952-0.562,10.322-5.842,9.76-11.794l-0.453-4.8c-3.099-32.848,11.481-64.871,38.297-84.092
						c49.499-35.479,79.527-103.494,72.472-178.269c-9.833-104.214-87.968-182.076-174.519-173.91
						c-86.551,8.166-148.744,99.269-138.912,203.483C1010.31,1354.176,1052.53,1415.375,1107.791,1440.969z M1027.16,1277.146
						c-8.333-88.318,44.373-165.524,117.723-172.444c73.349-6.921,139.566,59.065,147.899,147.383
						c8.333,88.318-44.374,165.524-117.723,172.444C1101.71,1431.449,1035.493,1365.464,1027.16,1277.146z"/>
					
						<linearGradient id="SVGID_00000071542079109208279360000013511282672890780076_" gradientUnits="userSpaceOnUse" x1="1321.4583" y1="1228.7737" x2="1630.9384" y2="1228.7737" gradientTransform="matrix(-0.8253 -0.5647 -0.5647 0.8253 3072.1658 1084.1176)">
						<stop  offset="0" style="stop-color:#AA80F9"/>
						<stop  offset="0.9964" style="stop-color:#6165D7"/>
					</linearGradient>
					<path style="fill:url(#SVGID_00000071542079109208279360000013511282672890780076_);" d="M1301.547,1251.257
						c-8.883-94.147-79.47-164.487-157.66-157.11c-78.19,7.377-134.375,89.679-125.492,183.826
						c8.883,94.147,79.47,164.487,157.66,157.11C1254.245,1427.706,1310.43,1345.404,1301.547,1251.257z M1292.781,1252.084
						c8.333,88.318-44.374,165.524-117.723,172.445c-73.349,6.92-139.566-59.065-147.899-147.383
						c-8.333-88.318,44.374-165.524,117.723-172.444C1218.232,1097.781,1284.449,1163.767,1292.781,1252.084z"/>
				</g>
				
					<linearGradient id="SVGID_00000088094004933386137850000017235383488006846344_" gradientUnits="userSpaceOnUse" x1="981.7529" y1="1581.0129" x2="894.8008" y2="1859.26">
					<stop  offset="0" style="stop-color:#FFC444"/>
					<stop  offset="0.9964" style="stop-color:#F36F56"/>
				</linearGradient>
				<path style="fill:url(#SVGID_00000088094004933386137850000017235383488006846344_);" d="M959.805,1694.776
					c-2.296,13.616,7.166,26.452,20.865,28.19c16.593,2.106,36.877,5.312,45.918,9.233c16.596,7.198-47.684,3.89-105.908,8.974
					c-36.349,3.174-63.892,2.112-79.457,0.865c-4.18-0.336-5.129-6.011-1.312-7.739c13.988-6.332,36.809-15.902,56.47-20.621
					c24.341-5.844,44.767-63.254,44.767-63.254l23.289,16.869L959.805,1694.776z"/>
				
					<linearGradient id="SVGID_00000091708213164268569400000015416673062611195530_" gradientUnits="userSpaceOnUse" x1="883.4679" y1="1637.7457" x2="1011.5322" y2="1637.7457">
					<stop  offset="0" style="stop-color:#FFC444"/>
					<stop  offset="0.9964" style="stop-color:#F36F56"/>
				</linearGradient>
				<path style="fill:url(#SVGID_00000091708213164268569400000015416673062611195530_);" d="M980.874,1673.036
					c0,0-28.398,32.257-71.753,21.677c-38.82-9.475-29.057-98.549-0.683-112.82c9.464-4.76,26.679-4.396,39.634,1.823
					c7.651,3.673,9.787,7.497,22.405,13.257c11.638,5.31,15.325,4.566,18.458,8.314c3.924,4.686,5.622,14.783-6.602,39.172
					c8.827-6.267,18.335-7.593,24.174-3.463c0.933,0.659,3.307,2.969,4.333,6.015
					C1014.558,1658.038,1003.111,1669.266,980.874,1673.036z"/>
				
					<linearGradient id="SVGID_00000072271232768311619480000017292410503840981412_" gradientUnits="userSpaceOnUse" x1="998.6717" y1="1816.9991" x2="593.7635" y2="3112.7073">
					<stop  offset="0" style="stop-color:#FFC444"/>
					<stop  offset="0.9964" style="stop-color:#F36F56"/>
				</linearGradient>
				<path style="fill:url(#SVGID_00000072271232768311619480000017292410503840981412_);" d="M924.826,2187.155
					c0,0,16.806,206.822-78.22,292.531c-95.026,85.71-175.146,167.693-173.283,184.463c1.863,16.769-28.013-7.222-0.032-63.235
					c27.981-56.013,119.541-177.125,139.907-188.305c20.365-11.18-53.904-184.463,0-232.907
					C867.102,2131.257,924.826,2187.155,924.826,2187.155z"/>
				
					<linearGradient id="SVGID_00000003800562184137145730000000492810468782263470_" gradientUnits="userSpaceOnUse" x1="1176.3265" y1="1804.1766" x2="774.3059" y2="3090.6448">
					<stop  offset="0" style="stop-color:#FFC444"/>
					<stop  offset="0.9964" style="stop-color:#F36F56"/>
				</linearGradient>
				<path style="fill:url(#SVGID_00000003800562184137145730000000492810468782263470_);" d="M1041.819,2161.069
					c-51.742-83.847-115.093,28.064-115.093,28.064s56.518,177.629,50.928,260.88c-5.59,83.252,21.739,249.816,31.055,249.816
					c2.917,0,5.834,0,8.463,0c5.859,0,10.792-4.45,11.598-10.251C1038.14,2622.115,1088.981,2237.495,1041.819,2161.069z"/>
				
					<linearGradient id="SVGID_00000018948261868962006330000009185286478186889901_" gradientUnits="userSpaceOnUse" x1="1055.548" y1="1787.8964" x2="793.5633" y2="2626.2485">
					<stop  offset="0" style="stop-color:#444B8C"/>
					<stop  offset="0.9964" style="stop-color:#26264F"/>
				</linearGradient>
				<path style="fill:url(#SVGID_00000018948261868962006330000009185286478186889901_);" d="M813.241,2049.895
					c0,0-185.454,230.423-98.793,249.055c86.661,18.633,391.707,67.077,398.64,0c6.933-67.077-70.507-267.739-70.507-267.739
					S973.563,2075.67,813.241,2049.895z"/>
				
					<linearGradient id="SVGID_00000002360513825100502930000016055904061487590061_" gradientUnits="userSpaceOnUse" x1="1089.0927" y1="1555.3251" x2="917.2354" y2="2105.269">
					<stop  offset="0" style="stop-color:#FFC444"/>
					<stop  offset="0.9964" style="stop-color:#F36F56"/>
				</linearGradient>
				<path style="fill:url(#SVGID_00000002360513825100502930000016055904061487590061_);" d="M804.993,1800.218
					c0,0,3.727-74.53,55.898-50.929c52.171,23.601,160.706,165.52,226.541,107.137c65.835-58.382,98.287-73.133,98.287-73.133
					s15.373-40.215,34.704-22.825c19.331,17.39,6.211,29.502-14.208,43.166c-20.419,13.664-86.952,133.223-166.451,129.496
					C960.265,1929.404,820.986,1886.704,804.993,1800.218z"/>
			</g>
		</g>
		<g>
			
				<linearGradient id="SVGID_00000152242093627045322330000005204093265253334425_" gradientUnits="userSpaceOnUse" x1="635.1329" y1="1098.4199" x2="884.7034" y2="1571.8126">
				<stop  offset="0" style="stop-color:#AA80F9"/>
				<stop  offset="0.9964" style="stop-color:#6165D7"/>
			</linearGradient>
			<path style="fill:url(#SVGID_00000152242093627045322330000005204093265253334425_);" d="M846.06,1302.68
				c0,57.024-46.22,103.244-103.244,103.244c-21.203,0-40.911-6.398-57.302-17.351c-27.7-18.519-45.932-50.072-45.932-85.893
				c0-57.014,46.22-103.234,103.234-103.234c22.937,0,44.12,7.477,61.253,20.134C829.541,1238.367,846.06,1268.592,846.06,1302.68z"
				/>
			<g>
				<defs>
					
						<ellipse id="SVGID_00000096776065466296864900000006778086681341083830_" transform="matrix(0.7071 -0.7071 0.7071 0.7071 -703.5696 906.8002)" cx="742.82" cy="1302.684" rx="103.239" ry="103.239"/>
				</defs>
				<clipPath id="SVGID_00000033343827677023969600000016478616487797268660_">
					<use xlink:href="#SVGID_00000096776065466296864900000006778086681341083830_"  style="overflow:visible;"/>
				</clipPath>
				<g style="clip-path:url(#SVGID_00000033343827677023969600000016478616487797268660_);">
					<g>
						<path style="fill:#FFFFFF;" d="M767.97,1423.991l-8.333-5.73c16.041-23.331,21.239-44.395,15.453-62.606
							c-11.859-37.319-67.462-57.816-100.683-70.063c-1.684-0.621-3.317-1.223-4.892-1.808
							c-15.566-5.777-25.254-14.731-28.795-26.616c-6.271-21.044,9.627-42.906,10.307-43.827l8.133,6.008l-4.067-3.004l4.072,2.998
							c-0.136,0.186-13.594,18.793-8.743,34.973c2.595,8.657,10.202,15.381,22.61,19.987c1.57,0.582,3.196,1.182,4.873,1.8
							c34.957,12.887,93.466,34.455,106.823,76.489C791.509,1373.933,785.871,1397.954,767.97,1423.991z"/>
					</g>
					<g>
						<path style="fill:#FFFFFF;" d="M853.74,1315.798c-25.9,0-43.594-20.953-55.384-65.285
							c-11.689-43.951-58.487-53.379-58.958-53.469l1.898-9.933c2.18,0.417,53.529,10.779,66.833,60.803
							c14.513,54.573,34.689,59.372,50.636,57.46l1.205,10.04C857.844,1315.669,855.766,1315.798,853.74,1315.798z"/>
					</g>
				</g>
			</g>
			<g style="opacity:0.3;">
				
					<linearGradient id="SVGID_00000151501189760971265100000007031905716114870681_" gradientUnits="userSpaceOnUse" x1="685.5138" y1="1312.7521" x2="846.0596" y2="1312.7521">
					<stop  offset="0" style="stop-color:#AA80F9"/>
					<stop  offset="0.9964" style="stop-color:#6165D7"/>
				</linearGradient>
				<path style="fill:url(#SVGID_00000151501189760971265100000007031905716114870681_);" d="M846.06,1302.68
					c0,57.024-46.22,103.244-103.244,103.244c-21.203,0-40.911-6.398-57.302-17.351c33.672-17.034,49.033-36.851,56.153-54.737
					c13.033-32.721-1.089-59.996,18.192-86.665c10.23-14.152,25.967-22.739,44.209-27.591
					C829.541,1238.367,846.06,1268.592,846.06,1302.68z"/>
			</g>
		</g>
		<g>
			
				<linearGradient id="SVGID_00000112608841677668691840000003637362224055155096_" gradientUnits="userSpaceOnUse" x1="3468.592" y1="3797.4839" x2="3671.3025" y2="4062.231" gradientTransform="matrix(0.0401 0.9992 -0.9992 0.0401 5300.1665 -1377.3524)">
				<stop  offset="0" style="stop-color:#444B8C"/>
				<stop  offset="0.9964" style="stop-color:#26264F"/>
			</linearGradient>
			<path style="fill:url(#SVGID_00000112608841677668691840000003637362224055155096_);" d="M1551.232,2293.239
				c-0.297,0.045-0.952-0.004-1.876-0.055c-4.135-0.23-13.652-0.509-20.636,7.416c-8.543,9.695-9.655,33.364-9.937,61.774
				c-0.282,28.411,17.099,5.155,19.011,1.046c1.913-4.108,24.112-60.498,24.112-60.498L1551.232,2293.239z"/>
			
				<linearGradient id="SVGID_00000000903617904475169020000000325229577735118977_" gradientUnits="userSpaceOnUse" x1="1214.3905" y1="1308.4586" x2="1408.5096" y2="2382.8828" gradientTransform="matrix(-1 0 0 1 3155.6672 0)">
				<stop  offset="0" style="stop-color:#FFC444"/>
				<stop  offset="0.9964" style="stop-color:#F36F56"/>
			</linearGradient>
			<path style="fill:url(#SVGID_00000000903617904475169020000000325229577735118977_);" d="M1546.149,2307.923
				c3.283,0,35.043,0.101,80.548-1.557c95.852-3.488,252.648-14.661,332.248-50.651c117.352-53.022-71.102-273.099-71.102-273.099
				l-97.646,50.212c0,0,44.015,97.071,92.567,164.786c-42.187-20.721-171.083,26.748-256.1,62.536
				c-45.743,19.23-78.822,35.076-78.822,35.076S1539.378,2307.923,1546.149,2307.923z"/>
			
				<linearGradient id="SVGID_00000000930726796973572010000007123011118697434797_" gradientUnits="userSpaceOnUse" x1="2024.8445" y1="3736.1306" x2="2227.5547" y2="4000.8774" gradientTransform="matrix(0.7017 0.7125 -0.7125 0.7017 2989.925 -1602.3907)">
				<stop  offset="0" style="stop-color:#444B8C"/>
				<stop  offset="0.9964" style="stop-color:#26264F"/>
			</linearGradient>
			<path style="fill:url(#SVGID_00000000930726796973572010000007123011118697434797_);" d="M1714.819,2563.74
				c-0.19,0.234-0.708,0.638-1.426,1.221c-3.215,2.61-10.445,8.805-10.285,19.367c0.197,12.921,15.292,31.185,34.19,52.4
				c18.898,21.216,16.121-7.685,14.773-12.012c-1.347-4.327-22.842-60.989-22.842-60.989L1714.819,2563.74z"/>
			
				<linearGradient id="SVGID_00000085944873613352209120000005356536290940763064_" gradientUnits="userSpaceOnUse" x1="1758.1769" y1="2027.8417" x2="1681.9966" y2="2508.6243">
				<stop  offset="0" style="stop-color:#FFC444"/>
				<stop  offset="0.9964" style="stop-color:#F36F56"/>
			</linearGradient>
			<path style="fill:url(#SVGID_00000085944873613352209120000005356536290940763064_);" d="M1691.434,2118.826
				c8.226,35.043,1.658,70.797,2.065,106.281c0.304,29.558,5.113,59.149,2.472,88.741c-5.383,60.437-5.756,118.842,1.795,178.262
				c1.354,10.632,2.979,21.297,4.841,32.03c1.015,5.757,3.386,27.797,7.856,39.276c1.151,2.979,2.47,5.282,3.926,6.332
				c0.339,0.271,0.678,0.473,1.05,0.575c5.993,1.964,6.196,1.186,7.178,0.744c4.841-2.098,8.43-6.33,9.751-11.409
				c3.353-12.799,8.836-34.433,15.203-59.693c16.894-67.106,39.884-159.944,44.692-181.206c2.371-10.531,3.217-48.282,2.336-57.322
				c-7.889-79.363,21.5-172.133,15.1-240.899c-27.627-43.643-61.012-31.828-92.871-71.712
				C1664.212,2002.694,1675.352,2050.399,1691.434,2118.826z"/>
			
				<linearGradient id="SVGID_00000023990223907471261590000011188558453947759248_" gradientUnits="userSpaceOnUse" x1="1436.1509" y1="2355.5388" x2="1420.3501" y2="3059.7842" gradientTransform="matrix(-1 0 0 1 3155.6672 0)">
				<stop  offset="0" style="stop-color:#AA80F9"/>
				<stop  offset="0.9964" style="stop-color:#6165D7"/>
			</linearGradient>
			<path style="fill:url(#SVGID_00000023990223907471261590000011188558453947759248_);" d="M1697.766,2492.11
				c1.354,10.632,2.979,21.297,4.841,32.03c1.015,5.757,3.386,27.797,7.856,39.276c1.286,2.303,2.605,4.401,3.926,6.332
				c0.339,0.271,0.678,0.473,1.05,0.575c5.993,1.964,6.196,1.186,7.178,0.744c4.841-2.098,8.43-6.33,9.751-11.409
				c3.353-12.799,8.836-34.433,15.203-59.693C1747.571,2499.964,1712.425,2495.292,1697.766,2492.11z"/>
			
				<linearGradient id="SVGID_00000016785550144583357630000008342747745228350349_" gradientUnits="userSpaceOnUse" x1="1390.3228" y1="1934.6675" x2="1234.5754" y2="2533.9543" gradientTransform="matrix(-1 0 0 1 3155.6672 0)">
				<stop  offset="0" style="stop-color:#444B8C"/>
				<stop  offset="0.9964" style="stop-color:#26264F"/>
			</linearGradient>
			<path style="fill:url(#SVGID_00000016785550144583357630000008342747745228350349_);" d="M1898.554,1963.418
				c0,0,107.781,186.219,107.781,235.313c-135.996,0-154.846-10.646-154.846-10.646l-32.501-55.377l-15.236,70.537
				c0,0-118.503,16.365-142.768,0c-1.693-47.401-17.493-140.51-6.772-172.676
				C1664.934,1998.405,1872.032,1939.154,1898.554,1963.418z"/>
			
				<linearGradient id="SVGID_00000111897830396594418260000012567297339742181816_" gradientUnits="userSpaceOnUse" x1="1214.5846" y1="1308.4252" x2="1408.7037" y2="2382.8499" gradientTransform="matrix(-1 0 0 1 3155.6672 0)">
				<stop  offset="0" style="stop-color:#FFC444"/>
				<stop  offset="0.9964" style="stop-color:#F36F56"/>
			</linearGradient>
			<path style="fill:url(#SVGID_00000111897830396594418260000012567297339742181816_);" d="M1861.875,1594.281
				c29.855-85.455,49.868-143.432,48.816-181.054c-1.41-50.435-10.295-123.729-13.697-140.878
				c-3.349-4.573-7.792-12.144-8.835-22.094c-2.24-21.34,12.194-43.658,20.897-42.508c7.874,1.043,11.301,21.841,12.054,30.434
				c1.302,14.889-2.561,26.07-6.281,36.227c0.008,0,0.013,0,0.02,0c33.203,60.944,56.633,118.938,58.876,151.701
				c3.458,50.496-4.612,90.878-14.552,140.92c-9.891,49.803-22.247,86.88-29.708,109.091
				c-16.231,48.325-49.035,76.808-63.914,107.255c-25.656-17.863-40.989-34.397-48.078-73.835
				C1809.401,1664.637,1834.454,1672.763,1861.875,1594.281z"/>
			
				<linearGradient id="SVGID_00000010283138112130564940000014269421114188811936_" gradientUnits="userSpaceOnUse" x1="991.8517" y1="2333.6948" x2="397.5715" y2="1031.8279" gradientTransform="matrix(1 0 0 1 1003.1551 0)">
				<stop  offset="0" style="stop-color:#AA80F9"/>
				<stop  offset="0.9964" style="stop-color:#6165D7"/>
			</linearGradient>
			<path style="fill:url(#SVGID_00000010283138112130564940000014269421114188811936_);" d="M1888.796,1860.944
				c13.264,57.616,28.411,83.701,18.933,123.793c-7.823,33.094-47.722,49.149-88.793,65.676
				c-27.445,11.045-112.331,45.202-161.698,6.793c-20.776-16.165-23.051-35.683-37.874-107.423
				c-37.659-182.273-52.247-197.932-36.409-237.39c24.499-61.034,86.015-89.859,106.841-98.393c2.234-0.916,4.032-1.617,5.3-2.098
				c52.961-20.12,151.175-30.466,190.682,10.794C1928.681,1667.503,1857.904,1726.752,1888.796,1860.944z"/>
			<g>
				<g>
					
						<linearGradient id="SVGID_00000110473293078475300700000009361098878523081141_" gradientUnits="userSpaceOnUse" x1="1364.11" y1="841.9666" x2="1335.4388" y2="1196.2573" gradientTransform="matrix(-1 0 0 1 3155.6672 0)">
						<stop  offset="0" style="stop-color:#FFC444"/>
						<stop  offset="0.9964" style="stop-color:#F36F56"/>
					</linearGradient>
					<path style="fill:url(#SVGID_00000110473293078475300700000009361098878523081141_);" d="M1680.34,1184.132
						c6.277,22.023,17.806,42.328,33.704,58.979c15.104,15.843,34.168,28.423,56.326,36.02c8.949,3.063,17.958,5.177,27.005,6.406
						c26.785,3.631,53.435-0.654,77.115-11.424c3.435-1.559,6.803-3.258,10.104-5.085c23.49-13.019,43.361-32.744,56.43-57.64
						c3.325-6.333,6.241-13.02,8.637-20.025c7.158-20.88,9.138-42.341,6.607-62.848c-5.061-41.522-28.514-79.425-64.706-102.23
						c-9.083-5.782-19.003-10.556-29.664-14.211c-14.676-5.031-29.56-7.512-44.266-7.665c-32.017-0.349-62.958,10.293-87.811,29.511
						c-4.621,3.564-9.034,7.421-13.203,11.559c-12.72,12.616-23.191,27.83-30.52,45.201c-1.247,2.989-2.426,6.052-3.49,9.157
						C1672.914,1128.117,1672.706,1157.378,1680.34,1184.132z"/>
				</g>
				<g>
					<defs>
						<path id="SVGID_00000009564955507250447610000010656111413467522718_" d="M1682.606,1099.834
							c-9.693,28.282-9.9,57.546-2.267,84.298c6.276,22.02,17.806,42.328,33.702,58.977c15.105,15.845,34.173,28.426,56.328,36.019
							c8.95,3.067,17.96,5.177,27.005,6.411c30.668,4.154,61.158-2.064,87.222-16.51c23.486-13.02,43.359-32.744,56.427-57.645
							c3.325-6.328,6.239-13.019,8.639-20.021c7.157-20.882,9.134-42.34,6.608-62.852c-5.062-41.517-28.517-79.424-64.706-102.227
							c-9.086-5.782-19.005-10.559-29.665-14.213c-14.677-5.031-29.562-7.511-44.268-7.661
							c-32.016-0.349-62.955,10.293-87.81,29.511c-18.724,14.428-33.992,33.686-43.721,56.755
							C1684.853,1093.67,1683.67,1096.733,1682.606,1099.834z"/>
					</defs>
					<clipPath id="SVGID_00000016073365451837629600000003341975567690528647_">
						<use xlink:href="#SVGID_00000009564955507250447610000010656111413467522718_"  style="overflow:visible;"/>
					</clipPath>
					<g style="clip-path:url(#SVGID_00000016073365451837629600000003341975567690528647_);">
						
							<linearGradient id="SVGID_00000102508815067520431870000016585427963234988954_" gradientUnits="userSpaceOnUse" x1="313.5493" y1="-503.692" x2="490.5082" y2="-503.692" gradientTransform="matrix(-0.576 0.8175 0.8175 0.576 2533.4753 1103.6097)">
							<stop  offset="0" style="stop-color:#AB316D"/>
							<stop  offset="1" style="stop-color:#792D3D"/>
						</linearGradient>
						<path style="fill:url(#SVGID_00000102508815067520431870000016585427963234988954_);" d="M1945.056,1236.511l-0.786-4.866
							c-82.198,13.266-105.34-27.427-105.564-27.84l-0.148-0.238c-21.629-30.852-13.645-80.223-3.139-116.208
							c11.479-39.315,28.377-71.577,28.547-71.899l-4.36-2.298c-0.171,0.326-17.301,33.029-28.917,72.816
							c-6.844,23.44-10.474,44.744-10.79,63.319c-0.398,23.421,4.498,42.597,14.553,56.997c0.78,1.367,7.078,11.745,23.14,20.534
							C1872.913,1235.213,1900.524,1243.698,1945.056,1236.511z"/>
					</g>
					<g style="clip-path:url(#SVGID_00000016073365451837629600000003341975567690528647_);">
						
							<linearGradient id="SVGID_00000100382846062760375240000005891069524736093117_" gradientUnits="userSpaceOnUse" x1="382.5718" y1="-567.0387" x2="541.0242" y2="-567.0387" gradientTransform="matrix(-0.576 0.8175 0.8175 0.576 2533.4753 1103.6097)">
							<stop  offset="0" style="stop-color:#AB316D"/>
							<stop  offset="1" style="stop-color:#792D3D"/>
						</linearGradient>
						<path style="fill:url(#SVGID_00000100382846062760375240000005891069524736093117_);" d="M1868.04,1296.219l2.597-4.189
							c-62.463-38.731-93.776-111.927-109.044-166.51c-16.607-59.366-18.361-110.194-18.377-110.701l-4.927,0.153
							c0.016,0.512,1.779,51.843,18.526,111.767c9.849,35.239,22.879,66.54,38.728,93.033
							C1815.419,1252.994,1839.81,1278.714,1868.04,1296.219z"/>
					</g>
					<g style="clip-path:url(#SVGID_00000016073365451837629600000003341975567690528647_);">
						
							<linearGradient id="SVGID_00000134225822213776418730000004527266255290912931_" gradientUnits="userSpaceOnUse" x1="516.0653" y1="-604.6754" x2="612.3077" y2="-604.6754" gradientTransform="matrix(-0.576 0.8175 0.8175 0.576 2533.4753 1103.6097)">
							<stop  offset="0" style="stop-color:#AB316D"/>
							<stop  offset="1" style="stop-color:#792D3D"/>
						</linearGradient>
						<path style="fill:url(#SVGID_00000134225822213776418730000004527266255290912931_);" d="M1764.202,1309.511
							c1.604-2.276,6.263-9.605,8.957-21.309c2.945-12.793,3.993-33.511-7.742-59.558c-22.189-49.252-97.495-103.531-100.69-105.817
							l-2.869,4.008c0.772,0.552,77.423,55.797,99.065,103.834c11.11,24.661,10.208,44.15,7.495,56.156
							c-2.94,13.01-8.581,20.311-8.638,20.384l3.869,3.054C1763.691,1310.209,1763.888,1309.957,1764.202,1309.511z"/>
					</g>
					<g style="clip-path:url(#SVGID_00000016073365451837629600000003341975567690528647_);">
						
							<linearGradient id="SVGID_00000091695814095639135270000007112512051464643483_" gradientUnits="userSpaceOnUse" x1="281.9403" y1="-540.8506" x2="598.3372" y2="-540.8506" gradientTransform="matrix(-0.576 0.8175 0.8175 0.576 2533.4753 1103.6097)">
							<stop  offset="0" style="stop-color:#AB316D"/>
							<stop  offset="1" style="stop-color:#792D3D"/>
						</linearGradient>
						<path style="fill:url(#SVGID_00000091695814095639135270000007112512051464643483_);" d="M1943.145,1125.016
							c13.01-18.464,18.535-34.141,20.708-45.691c3.894-20.692-1.662-32.981-1.901-33.494l-4.47,2.077
							c0.049,0.107,5.18,11.66,1.445,30.934c-3.473,17.924-15.525,46.358-53.212,80.027c-38.054,33.997-94.35,53.556-134.875,63.978
							c-44.004,11.317-79.371,14.589-79.724,14.621l0.443,4.909c0.356-0.032,36.121-3.341,80.508-14.756
							c41.055-10.558,98.138-30.419,136.932-65.076C1923.97,1149.171,1935.019,1136.549,1943.145,1125.016z"/>
					</g>
				</g>
				<g style="opacity:0.3;">
					
						<linearGradient id="SVGID_00000098203558366121718450000013474358830006338439_" gradientUnits="userSpaceOnUse" x1="1281.178" y1="1166.1406" x2="1480.7246" y2="1166.1406" gradientTransform="matrix(-1 0 0 1 3155.6672 0)">
						<stop  offset="0" style="stop-color:#FFC444"/>
						<stop  offset="0.9964" style="stop-color:#F36F56"/>
					</linearGradient>
					<path style="fill:url(#SVGID_00000098203558366121718450000013474358830006338439_);" d="M1680.34,1184.132
						c6.277,22.023,17.806,42.328,33.704,58.979c15.104,15.843,34.168,28.423,56.326,36.02c8.949,3.063,17.958,5.177,27.005,6.406
						c26.785,3.631,53.435-0.654,77.115-11.424c-44.065-22.897-64.382-49.327-73.899-73.227
						c-17.757-44.578,1.485-81.735-24.792-118.086c-13.747-19.01-34.773-30.648-59.18-37.322
						c-12.72,12.616-23.191,27.83-30.52,45.201c-1.247,2.989-2.426,6.052-3.49,9.157
						C1672.914,1128.117,1672.706,1157.378,1680.34,1184.132z"/>
				</g>
			</g>
			
				<linearGradient id="SVGID_00000127760843121377720050000004226900845663961475_" gradientUnits="userSpaceOnUse" x1="1397.4923" y1="1414.0862" x2="1363.1216" y2="1707.1422" gradientTransform="matrix(-1 0 0 1 3155.6672 0)">
				<stop  offset="0" style="stop-color:#FFC444"/>
				<stop  offset="0.9964" style="stop-color:#F36F56"/>
			</linearGradient>
			<path style="fill:url(#SVGID_00000127760843121377720050000004226900845663961475_);" d="M1795.852,1577.438
				c0,0-3.03,29.985,16.684,30.864s45.953,8.073,34.103,33.467c-11.85,25.393-17.352,37.244-43.169,29.203
				c-25.817-8.041-98.188-31.742-85.068-49.941c13.12-18.199,45.455-33.052,44.524-48.903
				C1761.994,1556.277,1796.698,1543.157,1795.852,1577.438z"/>
			
				<linearGradient id="SVGID_00000039120938413660206600000013637333106358355840_" gradientUnits="userSpaceOnUse" x1="-8867.4961" y1="504.2817" x2="-8972.4316" y2="237.7638" gradientTransform="matrix(-0.9842 0.1772 0.1772 0.9842 -7108.271 2787.666)">
				<stop  offset="0" style="stop-color:#311944"/>
				<stop  offset="1" style="stop-color:#6B3976"/>
			</linearGradient>
			<path style="fill:url(#SVGID_00000039120938413660206600000013637333106358355840_);" d="M1837.93,1487.714
				c2.263-11.836,10.979-12.164,12.849-23.129c2.347-13.757-8.471-30.213-21.843-37.263c-13.09-6.903-18.999,0.282-47.542,0
				c-30.662-0.303-35.426-8.713-60.392-5.14c-6.519,0.933-18.676,2.785-32.122,10.279c-10.722,5.974-31.986,17.825-34.693,39.834
				c-2.959,24.059,18.494,42.012,20.559,43.687c-8.113,27.923-4.656,39.762,1.284,44.973c0,0,6.305,5.531,38.547,5.139l0,0
				c0,0,9.104,11.31,14.398,15.087c6.026,4.295,17.743,6.407,42.997-5.596c0.446-5.418,1.347-13.148,3.341-22.272
				c3.744-17.122,5.616-25.687,10.364-27.306c11.962-4.082,27.937,37.74,44.109,34.662c10.398-1.977,18.495-22.065,17.139-38.264
				C1845.567,1506.199,1835.36,1501.162,1837.93,1487.714z"/>
			
				<linearGradient id="SVGID_00000101083715362033463970000009211904412005581714_" gradientUnits="userSpaceOnUse" x1="1780.4956" y1="1525.79" x2="1795.1676" y2="1801.1675">
				<stop  offset="0" style="stop-color:#FFC444"/>
				<stop  offset="0.9964" style="stop-color:#F36F56"/>
			</linearGradient>
			<path style="fill:url(#SVGID_00000101083715362033463970000009211904412005581714_);" d="M1751.242,1569.664
				c0,0,25.802,29.307,65.192,19.695c35.27-8.609,26.401-89.539,0.62-102.505c-8.599-4.324-24.24-3.994-36.01,1.656
				c-6.952,3.337-8.892,6.812-20.356,12.045c-10.574,4.825-13.924,4.148-16.77,7.554c-3.565,4.258-5.108,13.431,5.998,35.591
				c-8.02-5.694-16.658-6.899-21.964-3.147c-0.847,0.599-3.005,2.697-3.937,5.465
				C1720.637,1556.037,1731.037,1566.238,1751.242,1569.664z"/>
			
				<linearGradient id="SVGID_00000018941706301242049960000000258093949224267415_" gradientUnits="userSpaceOnUse" x1="1588.5249" y1="1182.5237" x2="1808.3306" y2="2399.1199">
				<stop  offset="0" style="stop-color:#FFC444"/>
				<stop  offset="0.9964" style="stop-color:#F36F56"/>
			</linearGradient>
			<path style="fill:url(#SVGID_00000018941706301242049960000000258093949224267415_);" d="M1686.906,1621.28
				c-37.67-57.61-25.301-303.222-23.342-338.019c6.294-9.721,23.798-36.849,30.557-48.211c8.307-13.966-14.656,1.584-14.656,1.584
				s5.079-24.015,12.697-37.558s-7.618-16.929-34.704,5.079c-27.086,22.008-26.242,80.836-26.242,80.836h0.002
				c-9.433,37.002-39.049,161.834-45.285,293.295c-3.215,67.803-0.699,131.538,3.194,182.068
				c20.125,80.49,64.522,12.616,106.844-26.321C1738.293,1695.094,1686.906,1621.28,1686.906,1621.28z"/>
			
				<linearGradient id="SVGID_00000036939763181373317210000014940708223801598652_" gradientUnits="userSpaceOnUse" x1="1568.8744" y1="2358.5171" x2="1553.0735" y2="3062.7646" gradientTransform="matrix(-1 0 0 1 3155.6672 0)">
				<stop  offset="0" style="stop-color:#AA80F9"/>
				<stop  offset="0.9964" style="stop-color:#6165D7"/>
			</linearGradient>
			<path style="fill:url(#SVGID_00000036939763181373317210000014940708223801598652_);" d="M1546.149,2307.923
				c3.283,0,35.043,0.101,80.548-1.557c-13.442-16.861-4.91-37.379-0.033-46.216c-45.743,19.23-78.822,35.076-78.822,35.076
				S1539.378,2307.923,1546.149,2307.923z"/>
		</g>
		<g>
			<g>
				<path style="fill:#FFFFFF;" d="M3061.719,1700.356c-18.674,15.706-40.964,26.764-64.924,31.986
					c-22.79,4.989-47.135,4.724-71.228-1.777c-9.728-2.628-18.943-6.139-27.669-10.446c-29.564-14.615-52.775-38.29-67.182-66.585
					c-2.449-4.806-4.635-9.753-6.561-14.807c-8.273-21.761-11.583-45.593-8.897-69.758c0.84-7.567,2.253-15.216,4.305-22.827
					c6.138-22.707,17.188-42.837,31.649-59.446c29.23-33.646,72.545-53.137,118.104-51.693c11.469,0.314,23.076,2.006,34.67,5.135
					c15.963,4.315,30.588,11,43.663,19.632c28.485,18.783,49.458,46.634,59.945,78.427c0.214,0.642,0.424,1.29,0.627,1.934
					c7.405,23.379,9.172,48.787,4.142,74.258c-0.682,3.386-1.466,6.797-2.374,10.171
					C3101.682,1655.316,3084.414,1681.278,3061.719,1700.356z"/>
				
					<linearGradient id="SVGID_00000021079206872471754120000005965585275628328605_" gradientUnits="userSpaceOnUse" x1="4009.606" y1="1178.3777" x2="4058.752" y2="1178.3777" gradientTransform="matrix(0.8288 0.5596 -0.5596 0.8288 424.811 -1658.5881)">
					<stop  offset="0" style="stop-color:#2B3582"/>
					<stop  offset="1" style="stop-color:#150E42"/>
				</linearGradient>
				<path style="fill:url(#SVGID_00000021079206872471754120000005965585275628328605_);" d="M3112.363,1614.39l-29.117-39.953
					l-1.664-2.287l1.684-2.203l23.363-30.487l0.965-1.262c0.214,0.642,0.424,1.29,0.627,1.934
					C3115.627,1563.511,3117.394,1588.919,3112.363,1614.39z"/>
				
					<linearGradient id="SVGID_00000010293641405936362370000013546408126789671095_" gradientUnits="userSpaceOnUse" x1="3567.7947" y1="2118.4031" x2="3649.8794" y2="2118.4031" gradientTransform="matrix(0.9654 0.2607 -0.2607 0.9654 73.5403 -1526.5604)">
					<stop  offset="0" style="stop-color:#2B3582"/>
					<stop  offset="1" style="stop-color:#150E42"/>
				</linearGradient>
				<path style="fill:url(#SVGID_00000010293641405936362370000013546408126789671095_);" d="M3047.647,1459.773l-48.8,16.759
					l-29.534-41.528c11.471,0.312,23.08,2.008,34.673,5.138C3019.947,1444.451,3034.571,1451.136,3047.647,1459.773z"/>
				
					<linearGradient id="SVGID_00000089542776233759815570000007995517555318107838_" gradientUnits="userSpaceOnUse" x1="3452.2" y1="2229.3474" x2="3491.8967" y2="2229.3474" gradientTransform="matrix(0.9654 0.2607 -0.2607 0.9654 73.5403 -1526.5604)">
					<stop  offset="0" style="stop-color:#2B3582"/>
					<stop  offset="1" style="stop-color:#150E42"/>
				</linearGradient>
				<path style="fill:url(#SVGID_00000089542776233759815570000007995517555318107838_);" d="M2866.347,1525.174l-51.089,43.8
					c0.838-7.571,2.253-15.218,4.309-22.832c6.132-22.709,17.182-42.838,31.644-59.445L2866.347,1525.174z"/>
				
					<linearGradient id="SVGID_00000003809487590001044430000017077569528030831543_" gradientUnits="userSpaceOnUse" x1="3847.241" y1="1395.9396" x2="3940.1763" y2="1395.9396" gradientTransform="matrix(0.8288 0.5596 -0.5596 0.8288 424.811 -1658.5881)">
					<stop  offset="0" style="stop-color:#2B3582"/>
					<stop  offset="1" style="stop-color:#150E42"/>
				</linearGradient>
				<path style="fill:url(#SVGID_00000003809487590001044430000017077569528030831543_);" d="M2897.898,1720.119
					c-29.564-14.615-52.775-38.29-67.182-66.585l56.221,9.01l0.896,0.145l0.805,4.588L2897.898,1720.119z"/>
				
					<linearGradient id="SVGID_00000003083726809848479430000008589224180545441956_" gradientUnits="userSpaceOnUse" x1="4022.4468" y1="1339.6178" x2="4064.8838" y2="1339.6178" gradientTransform="matrix(0.8288 0.5596 -0.5596 0.8288 424.811 -1658.5881)">
					<stop  offset="0" style="stop-color:#2B3582"/>
					<stop  offset="1" style="stop-color:#150E42"/>
				</linearGradient>
				<path style="fill:url(#SVGID_00000003083726809848479430000008589224180545441956_);" d="M3061.719,1700.356
					c-18.674,15.706-40.964,26.764-64.924,31.986l15.988-34.697l0.933-2.034l2.233,0.222L3061.719,1700.356z"/>
				
					<linearGradient id="SVGID_00000065072974564063819180000004240368599930695068_" gradientUnits="userSpaceOnUse" x1="3602.0037" y1="2157.48" x2="3609.0923" y2="2157.48" gradientTransform="matrix(0.9654 0.2607 -0.2607 0.9654 73.5403 -1526.5604)">
					<stop  offset="0" style="stop-color:#2B3582"/>
					<stop  offset="1" style="stop-color:#150E42"/>
				</linearGradient>
				<path style="fill:url(#SVGID_00000065072974564063819180000004240368599930695068_);" d="M2983.666,1521.671
					c-0.041-0.011-0.079-0.021-0.117-0.036c-1.174-0.385-1.816-1.651-1.431-2.825l15.267-46.539c0.387-1.173,1.671-1.842,2.828-1.43
					c1.174,0.385,1.816,1.651,1.431,2.824l-15.267,46.539C2986.003,1521.341,2984.806,1521.979,2983.666,1521.671z"/>
				
					<linearGradient id="SVGID_00000076591350408682872110000014378279388835881604_" gradientUnits="userSpaceOnUse" x1="-629.9752" y1="1912.5771" x2="-622.887" y2="1912.5771" gradientTransform="matrix(0.086 0.9963 -1.1415 0.0984 5295.1899 2009.1023)">
					<stop  offset="0" style="stop-color:#2B3582"/>
					<stop  offset="1" style="stop-color:#150E42"/>
				</linearGradient>
				<path style="fill:url(#SVGID_00000076591350408682872110000014378279388835881604_);" d="M3029.498,1576.458
					c-0.921-0.249-1.615-1.071-1.655-2.074c-0.049-1.237,0.912-2.278,2.15-2.329l56.057-2.218c1.239-0.046,2.278,0.914,2.326,2.151
					c0.049,1.237-0.912,2.278-2.149,2.329l-56.057,2.217C3029.936,1576.545,3029.711,1576.516,3029.498,1576.458z"/>
				
					<linearGradient id="SVGID_00000028316913290532104500000007842336125142455220_" gradientUnits="userSpaceOnUse" x1="3489.655" y1="2220.5156" x2="3546.7402" y2="2220.5156" gradientTransform="matrix(0.9654 0.2607 -0.2607 0.9654 73.5403 -1526.5604)">
					<stop  offset="0" style="stop-color:#2B3582"/>
					<stop  offset="1" style="stop-color:#150E42"/>
				</linearGradient>
				<path style="fill:url(#SVGID_00000028316913290532104500000007842336125142455220_);" d="M2915.313,1545.627
					c-0.066-0.018-0.13-0.04-0.194-0.061l-49.548-18.292c-1.161-0.427-1.755-1.716-1.326-2.878c0.43-1.162,1.742-1.719,2.878-1.326
					l49.548,18.292c1.16,0.427,1.755,1.715,1.326,2.878C2917.591,1545.336,2916.419,1545.926,2915.313,1545.627z"/>
				
					<linearGradient id="SVGID_00000077321888855087828140000013590831968082375048_" gradientUnits="userSpaceOnUse" x1="3546.9661" y1="2318.8506" x2="3570.041" y2="2318.8506" gradientTransform="matrix(0.9654 0.2607 -0.2607 0.9654 73.5403 -1526.5604)">
					<stop  offset="0" style="stop-color:#2B3582"/>
					<stop  offset="1" style="stop-color:#150E42"/>
				</linearGradient>
				<path style="fill:url(#SVGID_00000077321888855087828140000013590831968082375048_);" d="M2887.323,1667.323
					c-0.22-0.059-0.434-0.153-0.635-0.285c-1.039-0.675-1.334-2.06-0.661-3.097l32.976-50.799c0.674-1.037,2.069-1.34,3.099-0.659
					c1.04,0.675,1.334,2.06,0.661,3.097l-32.975,50.799C2889.244,1667.217,2888.238,1667.57,2887.323,1667.323z"/>
				
					<linearGradient id="SVGID_00000065777994860990483840000007591833615968639422_" gradientUnits="userSpaceOnUse" x1="3541.5427" y1="2237.8792" x2="3666.9475" y2="2237.8792" gradientTransform="matrix(0.9654 0.2607 -0.2607 0.9654 73.5403 -1526.5604)">
					<stop  offset="0" style="stop-color:#2B3582"/>
					<stop  offset="1" style="stop-color:#150E42"/>
				</linearGradient>
				<polygon style="fill:url(#SVGID_00000065777994860990483840000007591833615968639422_);" points="2916.307,1622.467 
					2912.934,1543.085 2985.61,1514.46 3033.867,1576.268 2991.131,1642.67 				"/>
				
					<linearGradient id="SVGID_00000039833038086225305330000001961820545384406959_" gradientUnits="userSpaceOnUse" x1="3640.7603" y1="2320.7881" x2="3680.8472" y2="2320.7881" gradientTransform="matrix(0.9654 0.2607 -0.2607 0.9654 73.5403 -1526.5604)">
					<stop  offset="0" style="stop-color:#2B3582"/>
					<stop  offset="1" style="stop-color:#150E42"/>
				</linearGradient>
				<path style="fill:url(#SVGID_00000039833038086225305330000001961820545384406959_);" d="M3013.135,1697.772
					c-0.655-0.177-1.221-0.647-1.494-1.324l-22.132-54.615c-0.466-1.145,0.089-2.451,1.234-2.916
					c1.147-0.47,2.453,0.087,2.918,1.236l22.132,54.616c0.466,1.145-0.088,2.451-1.234,2.916
					C3014.088,1697.875,3013.589,1697.895,3013.135,1697.772z"/>
			</g>
			<g style="opacity:0.1;">
				
					<linearGradient id="SVGID_00000180352000057639343670000014905281250984283832_" gradientUnits="userSpaceOnUse" x1="3833.5181" y1="1283.4939" x2="4070.6367" y2="1283.4939" gradientTransform="matrix(0.8288 0.5596 -0.5596 0.8288 424.811 -1658.5881)">
					<stop  offset="0" style="stop-color:#2B3582"/>
					<stop  offset="1" style="stop-color:#150E42"/>
				</linearGradient>
				<path style="fill:url(#SVGID_00000180352000057639343670000014905281250984283832_);" d="M3061.719,1700.356
					c-18.674,15.706-40.964,26.764-64.924,31.986c-22.79,4.989-47.135,4.724-71.228-1.777c-9.728-2.628-18.943-6.139-27.669-10.446
					c-29.564-14.615-52.775-38.29-67.182-66.585c-2.449-4.806-4.635-9.753-6.561-14.807c35.058,4.505,61.646,1.199,82.128-5.986
					c2.466-0.859,4.841-1.779,7.129-2.748c3.903-1.653,7.56-3.443,10.982-5.344c3.115-1.724,6.04-3.54,8.796-5.413
					c35.118-23.928,43.763-58.921,73.026-78.388c4.802-3.193,10.156-5.967,16.274-8.206c26.408-9.667,55.473-5.137,84.14,6.818
					c0.536,0.221,1.06,0.444,1.592,0.672c7.405,23.379,9.172,48.787,4.142,74.258c-0.682,3.386-1.466,6.797-2.374,10.171
					C3101.682,1655.316,3084.414,1681.278,3061.719,1700.356z"/>
			</g>
		</g>
		<g>
			
				<linearGradient id="SVGID_00000105408944418504417520000002157283159682085310_" gradientUnits="userSpaceOnUse" x1="2720.5811" y1="1786.5463" x2="2669.8682" y2="1974.3051" gradientTransform="matrix(0.9858 -0.1678 0.1678 0.9858 -446.057 414.6701)">
				<stop  offset="0" style="stop-color:#311944"/>
				<stop  offset="1" style="stop-color:#A03976"/>
			</linearGradient>
			<path style="fill:url(#SVGID_00000105408944418504417520000002157283159682085310_);" d="M2612.64,1733.664
				c-12.997,4.148-23.764,13.378-29.855,25.59c-8.223,16.494-21.329,41.263-34.742,60.443
				c-22.084,31.58-123.347,20.992-123.347,20.992l-11.317,51.989c0,0,11.791,20.246,94.943,14.439
				c83.156-5.807,88.656-111.401,88.656-111.401s13.637-4.146,19.331-7.462c5.694-3.316,7.431-14.564,8.31-17.061
				s19.935-16.171,4.045-16.074c-1.901,0.012-3.668,0.351-5.317,0.91c7.583-7.948,15.129-16.783,16.695-22.926
				C2641.899,1725.811,2626.576,1729.218,2612.64,1733.664z"/>
			
				<linearGradient id="SVGID_00000076605954978287457940000016997920897778704797_" gradientUnits="userSpaceOnUse" x1="2764.0078" y1="1821.5973" x2="2812.2437" y2="2797.0361" gradientTransform="matrix(0.9858 -0.1678 0.1678 0.9858 -446.057 414.6701)">
				<stop  offset="0" style="stop-color:#311944"/>
				<stop  offset="1" style="stop-color:#A03976"/>
			</linearGradient>
			<path style="fill:url(#SVGID_00000076605954978287457940000016997920897778704797_);" d="M2581.11,2033.232
				c7.427-1.936,276.38,9.173,266.542,98.467c-9.837,89.295-96.945,323.171-96.945,323.171l-15.869,6.86
				c0,0-51.863-218.931,5.758-284.877c57.621-65.947-198.371,82.303-229.105,38.991
				C2480.757,2172.532,2533.705,2045.59,2581.11,2033.232z"/>
			
				<linearGradient id="SVGID_00000139260745869019803970000003870696113643339961_" gradientUnits="userSpaceOnUse" x1="2785.8608" y1="1980.1432" x2="2814.6536" y2="2296.8657" gradientTransform="matrix(0.9858 -0.1678 0.1678 0.9858 -446.057 414.6701)">
				<stop  offset="0" style="stop-color:#AA80F9"/>
				<stop  offset="0.9964" style="stop-color:#6165D7"/>
			</linearGradient>
			<path style="fill:url(#SVGID_00000139260745869019803970000003870696113643339961_);" d="M2699.333,2032.465
				c0,0,110.553,12.03,120.828,35.764c-36.222,52.757-115.526,134.315-115.526,134.315s-98.983,47.645-122.934,33.583
				S2609.664,2044.945,2699.333,2032.465z"/>
			
				<linearGradient id="SVGID_00000131355640898030228790000012678693150771705479_" gradientUnits="userSpaceOnUse" x1="2451.4424" y1="2037.8021" x2="2809.262" y2="2121.4045" gradientTransform="matrix(0.9858 -0.1678 0.1678 0.9858 -446.057 414.6701)">
				<stop  offset="0" style="stop-color:#311944"/>
				<stop  offset="1" style="stop-color:#A03976"/>
			</linearGradient>
			<path style="fill:url(#SVGID_00000131355640898030228790000012678693150771705479_);" d="M2544.468,2062.299
				c0,0,92.967-147.948,302.693-172.515c209.727-24.567,254.099-54.371,254.099-54.371l5.406,31.764
				c0,0-189.565,133.791-283.812,135.227c-94.247,1.436-269.133,348.998-376.658,215.701L2544.468,2062.299z"/>
			
				<linearGradient id="SVGID_00000127043333142723915060000003685990142657339028_" gradientUnits="userSpaceOnUse" x1="2606.4592" y1="1693.8075" x2="2376.1104" y2="2546.6484" gradientTransform="matrix(0.9858 -0.1678 0.1678 0.9858 -446.057 414.6701)">
				<stop  offset="0" style="stop-color:#AA80F9"/>
				<stop  offset="0.9964" style="stop-color:#6165D7"/>
			</linearGradient>
			<path style="fill:url(#SVGID_00000127043333142723915060000003685990142657339028_);" d="M2451.107,2225.599
				c-1.337,0.978-2.542,1.726-3.624,2.243c-4.672,2.214-9.804,2.461-15.698,0.919c-32.562-8.436-88.734-71.017-218.479-159.921
				c-55.629-38.057-67.418-84.533-59.814-128.345c0.265-1.63,0.573-3.267,0.923-4.871c15.411-74.931,85.501-140.683,85.501-140.683
				c95.057-80.85,155.33,3.467,224.464,82.798c33.548,38.496,80.44,103.221,117.125,126.31c1.029,0.659,2.575,1.188,2.692,1.878
				c0,0,0,0,0.007,0.042c4.352,5.392,13.111,8.116,14.357,9.573C2605.333,2023.442,2486.731,2200.051,2451.107,2225.599z"/>
			
				<linearGradient id="SVGID_00000176731355068161159110000017572177259149231019_" gradientUnits="userSpaceOnUse" x1="2447.2969" y1="1889.1826" x2="2350.6914" y2="1643.8219" gradientTransform="matrix(0.9858 -0.1678 0.1678 0.9858 -446.057 414.6701)">
				<stop  offset="0" style="stop-color:#311944"/>
				<stop  offset="1" style="stop-color:#6B3976"/>
			</linearGradient>
			<path style="fill:url(#SVGID_00000176731355068161159110000017572177259149231019_);" d="M2184.705,1781.404
				c0,0-78.815-10.388-60.04-44.007c18.775-33.619-20.077-56.245,14.452-85.039c34.529-28.793,42.439-75.182,69.547-50.557
				c27.107,24.625,46.244,58.132,29.085,78.033C2220.59,1699.735,2203.96,1790.075,2184.705,1781.404z"/>
			
				<linearGradient id="SVGID_00000008139422741615121520000015097920612669042105_" gradientUnits="userSpaceOnUse" x1="2510.6123" y1="1925.7212" x2="2548.1396" y2="2684.6074" gradientTransform="matrix(0.9858 -0.1678 0.1678 0.9858 -446.057 414.6701)">
				<stop  offset="0" style="stop-color:#AA80F9"/>
				<stop  offset="0.9964" style="stop-color:#6165D7"/>
			</linearGradient>
			<path style="opacity:0.3;fill:url(#SVGID_00000008139422741615121520000015097920612669042105_);" d="M2451.107,2225.599
				c-1.337,0.978-2.542,1.726-3.624,2.243c-4.672,2.214-9.804,2.461-15.698,0.919c-32.562-8.436-88.734-71.017-218.479-159.921
				c-55.629-38.057-67.418-84.533-59.814-128.345c0.265-1.63,0.573-3.267,0.923-4.871c24.146-10.368,39.129-9.622,48.77-4.211
				c21.524,11.983,12.642,44.621,37.446,56.505c35.527,17.027,76.192-39.212,116.961-26.915
				c48.326,14.515,40.817,108.42,76.423,109.746c16.252,0.614,18.615-18.856,51.169-35.454c46.29-23.691,81.416-4.592,96.297-23.815
				c1.237-1.546,2.338-3.403,3.22-5.596c7.663,4.828,12.863,8.158,14.109,9.615
				C2605.582,2023.4,2486.731,2200.051,2451.107,2225.599z"/>
			
				<linearGradient id="SVGID_00000133523669630406698760000011759164946056524695_" gradientUnits="userSpaceOnUse" x1="4808.2676" y1="118.1753" x2="4781.9473" y2="342.5903" gradientTransform="matrix(-0.7033 0.7109 0.7109 0.7033 5397.792 -1790.0031)">
				<stop  offset="0" style="stop-color:#311944"/>
				<stop  offset="1" style="stop-color:#A03976"/>
			</linearGradient>
			<path style="fill:url(#SVGID_00000133523669630406698760000011759164946056524695_);" d="M2240.218,1780.307
				c6.154,10.921,20.162,14.577,30.823,7.982c12.914-7.988,29.06-17.308,37.68-19.703c15.823-4.396-31.433,29.973-69.623,66.807
				c-23.842,22.995-43.887,37.973-55.584,45.981c-3.142,2.15-7.052-1.314-5.345-4.713c6.257-12.456,16.898-32.241,28.08-46.798
				c13.842-18.023-4.523-70.204-4.523-70.204l26.069-1.392L2240.218,1780.307z"/>
			
				<linearGradient id="SVGID_00000153672790934990352890000017253166253625860994_" gradientUnits="userSpaceOnUse" x1="900.9564" y1="-2797.7083" x2="853.3907" y2="-2678.7942" gradientTransform="matrix(-0.2135 0.977 0.977 0.2135 4949.772 1475.2507)">
				<stop  offset="0" style="stop-color:#311944"/>
				<stop  offset="1" style="stop-color:#A03976"/>
			</linearGradient>
			<path style="fill:url(#SVGID_00000153672790934990352890000017253166253625860994_);" d="M2207.66,1785.639
				c0,0,43.706,7.443,71.612-29.172c24.986-32.788-40.641-97.892-72.658-90.926c-10.679,2.324-24.25,13.786-30.604,27.179
				c-3.753,7.91-2.984,12.363-9.366,25.17c-5.888,11.81-9.328,13.605-9.409,18.644c-0.106,6.304,5.083,15.504,30.712,27.133
				c-11.146,0.701-19.631,5.807-21.635,12.908c-0.32,1.134-0.726,4.527,0.427,7.635
				C2170.913,1795.467,2187.379,1797.044,2207.66,1785.639z"/>
			
				<linearGradient id="SVGID_00000122714546452035847350000007284888349393712565_" gradientUnits="userSpaceOnUse" x1="2720.5034" y1="2019.3644" x2="2753.1187" y2="2678.9221" gradientTransform="matrix(0.9858 -0.1678 0.1678 0.9858 -446.057 414.6701)">
				<stop  offset="0" style="stop-color:#AA80F9"/>
				<stop  offset="0.9964" style="stop-color:#6165D7"/>
			</linearGradient>
			<path style="fill:url(#SVGID_00000122714546452035847350000007284888349393712565_);" d="M2788.914,2067.761
				c0,0-151.029,159.429-223.245,192.582c-30.07,13.795-98.76,8.838-115.18-27.838c-1.514-3.246-2.572-6.78-3.141-10.605
				c-0.034-0.203-0.029-0.413-0.064-0.615c-0.698-5.347-0.52-10.426,0.36-15.291c0.037-0.048,0.069-0.095,0.062-0.136
				c3.377-18.391,16.885-33.666,29.449-47.612c8.425-9.32,17.274-18.378,23.959-29.112c7.958-12.829,6.446-25.381,10.359-39.398
				c2.606-9.206,6.486-17.793,12.046-25.583c20.594-29.039,54.708-52.661,82.434-74.362c31.811-24.899,64.459-48.563,97.792-71.385
				c6.857,13.812,15.232,26.99,22.892,40.374c2.251,3.914,4.502,7.828,6.714,11.75l13.532,23.607
				C2760.906,2018.663,2774.892,2043.236,2788.914,2067.761z"/>
			<path style="fill:#FFFFFF;" d="M2747.003,1994.836c0,0-278.796,193.457-289.84,226.629c-2.322,6.946-4.641,10.249-6.644,11.215
				c-1.514-3.246-2.587-6.868-3.156-10.693c-0.034-0.203-0.037-0.456-0.071-0.658c-0.698-5.347-0.523-10.448,0.356-15.313
				c0.037-0.048,0.067-0.106,0.061-0.147c2.274-5.77,5.957-11.325,11.489-15.354c0,0,95.93-110.532,139.478-130.46
				c43.009-19.67,132.444-87.706,134.915-88.127c0.044-0.007,0.044-0.007,0.044-0.007L2747.003,1994.836z"/>
			
				<linearGradient id="SVGID_00000083082957482870367110000016874339230894602653_" gradientUnits="userSpaceOnUse" x1="-2451.2378" y1="-3451.8877" x2="-2376.8281" y2="-3451.8877" gradientTransform="matrix(0.9031 -0.4295 -0.4295 -0.9031 3803.877 -2340.0789)">
				<stop  offset="0" style="stop-color:#444B8C"/>
				<stop  offset="0.9964" style="stop-color:#26264F"/>
			</linearGradient>
			<path style="fill:url(#SVGID_00000083082957482870367110000016874339230894602653_);" d="M3103.41,1869.119
				c0.37-0.145,1.228-0.272,2.433-0.475c5.394-0.907,17.737-3.32,24.428-15.563c8.184-14.979,2.724-45.796-5.187-82.48
				c-7.91-36.685-23.531-1.662-24.798,4.188c-1.268,5.85-13.447,84.964-13.447,84.964L3103.41,1869.119z"/>
			
				<linearGradient id="SVGID_00000163039440397837752180000007014766006387151295_" gradientUnits="userSpaceOnUse" x1="967.0583" y1="-402.7839" x2="1041.4613" y2="-402.7839" gradientTransform="matrix(-0.4033 0.9151 0.9151 0.4033 3542.4651 1732.6624)">
				<stop  offset="0" style="stop-color:#444B8C"/>
				<stop  offset="0.9964" style="stop-color:#26264F"/>
			</linearGradient>
			<path style="fill:url(#SVGID_00000163039440397837752180000007014766006387151295_);" d="M2735.175,2445.676
				c-0.185,0.351-0.752,1.008-1.532,1.949c-3.492,4.21-11.261,14.1-8.329,27.74c3.588,16.687,27.853,36.454,57.806,59.062
				c29.953,22.609,18.902-14.113,16.04-19.37c-2.862-5.257-45.32-73.115-45.32-73.115L2735.175,2445.676z"/>
			<path style="fill:#FFFFFF;" d="M2713.576,2301.994l88.227,14.836l-50.408,142.082c0,0-17.444,5.075-18.949-5.106
				C2730.941,2443.624,2707.06,2326.971,2713.576,2301.994z"/>
			<path style="fill:#FFFFFF;" d="M2886.9,1884.841c0,0,42.912,73.803,28.117,92.211
				c104.398-42.002,188.394-107.933,188.394-107.933s6.181-35.124-3.64-33.453C3083.378,1838.456,2886.9,1884.841,2886.9,1884.841z"
				/>
			
				<linearGradient id="SVGID_00000021808289736035795630000011678559978761049745_" gradientUnits="userSpaceOnUse" x1="2874.4041" y1="2248.1726" x2="2803.0779" y2="2512.2498" gradientTransform="matrix(0.9999 0.0144 -0.0144 0.9999 -545.0032 -189.9772)">
				<stop  offset="0" style="stop-color:#311944"/>
				<stop  offset="1" style="stop-color:#A03976"/>
			</linearGradient>
			<path style="fill:url(#SVGID_00000021808289736035795630000011678559978761049745_);" d="M2143.941,2055.721
				c0,0-32.31,281.322,20.769,290.314c53.079,8.992,152.796-35.85,163.113-38.102c10.317-2.251,31.633,17.253,46.365,17.808
				c14.733,0.555,9.207,27.214,16.17,19.773c6.963-7.441,11.379-52.208-5.621-61.919s-46.049-15.957-57.463-8.923
				c-11.414,7.034-122.863,9.542-122.863,9.542l22.772-200.557L2143.941,2055.721z"/>
			
				<linearGradient id="SVGID_00000085958695957344381410000001513340328428379315_" gradientUnits="userSpaceOnUse" x1="2447.2881" y1="1650.8157" x2="2216.9419" y2="2503.6462" gradientTransform="matrix(0.9858 -0.1678 0.1678 0.9858 -446.057 414.6701)">
				<stop  offset="0" style="stop-color:#AA80F9"/>
				<stop  offset="0.9964" style="stop-color:#6165D7"/>
			</linearGradient>
			<path style="fill:url(#SVGID_00000085958695957344381410000001513340328428379315_);" d="M2170.774,1888.993
				c0,0-46.753,89.084-44.626,150.617c2.127,61.532,1.839,108.869,1.839,108.869s136.058-1.413,145.245,3.537
				C2276.171,2113.882,2300.867,1848.304,2170.774,1888.993z"/>
		</g>
		<g>
			<g>
				
					<linearGradient id="SVGID_00000078736121778990273110000008285058897906286489_" gradientUnits="userSpaceOnUse" x1="1136.4952" y1="956.6202" x2="1991.871" y2="956.6202" gradientTransform="matrix(-1 0 0 1 4107.0996 0)">
					<stop  offset="0" style="stop-color:#444B8C"/>
					<stop  offset="0.9964" style="stop-color:#26264F"/>
				</linearGradient>
				
					<circle style="fill:url(#SVGID_00000078736121778990273110000008285058897906286489_);" cx="2542.917" cy="956.62" r="427.688"/>
				<g>
					
						<linearGradient id="SVGID_00000078746341356646586540000001444418017175252372_" gradientUnits="userSpaceOnUse" x1="1660.5347" y1="704.7536" x2="1484.8182" y2="1306.8422" gradientTransform="matrix(-1 0 0 1 4107.0996 0)">
						<stop  offset="0" style="stop-color:#AA80F9"/>
						<stop  offset="0.9964" style="stop-color:#6165D7"/>
					</linearGradient>
					
						<circle style="fill:url(#SVGID_00000078746341356646586540000001444418017175252372_);" cx="2510.656" cy="924.359" r="427.688"/>
					<path style="fill:#FFFFFF;" d="M2112.463,924.359c0,219.929,178.261,398.192,398.192,398.192
						c78.414,0,151.556-22.676,213.186-61.863c111.205-70.584,185.007-194.813,185.007-336.329
						c0-219.931-178.261-398.193-398.192-398.193c-3.683,0-7.326,0.039-10.969,0.155
						C2284.835,532.135,2112.463,708.111,2112.463,924.359z"/>
					<g>
						
							<linearGradient id="SVGID_00000146478530721037765810000000336720376977186703_" gradientUnits="userSpaceOnUse" x1="1238.8357" y1="850.3829" x2="1954.0531" y2="850.3829" gradientTransform="matrix(-1 0 0 1 4107.0996 0)">
							<stop  offset="0" style="stop-color:#AA80F9"/>
							<stop  offset="0.9964" style="stop-color:#6165D7"/>
						</linearGradient>
						<polygon style="fill:url(#SVGID_00000146478530721037765810000000336720376977186703_);" points="2510.655,741.38 
							2868.264,850.383 2510.655,959.386 2153.046,850.383 						"/>
						
							<linearGradient id="SVGID_00000168091595595007275870000018106611206726180002_" gradientUnits="userSpaceOnUse" x1="1371.3756" y1="1025.0403" x2="1804.9315" y2="1025.0403" gradientTransform="matrix(-1 0 0 1 4107.0996 0)">
							<stop  offset="0" style="stop-color:#AA80F9"/>
							<stop  offset="0.9964" style="stop-color:#6165D7"/>
						</linearGradient>
						<path style="fill:url(#SVGID_00000168091595595007275870000018106611206726180002_);" d="M2510.655,978.817l225.069-68.604
							v156.72c0,25.723-17.989,47.97-43.152,53.305c-120.869,25.627-237.09,26.422-348.374,0.838
							c-24.651-5.667-42.03-27.755-42.03-53.049v-152.76L2510.655,978.817z"/>
						
							<linearGradient id="SVGID_00000048461707639414375060000002540131770818925451_" gradientUnits="userSpaceOnUse" x1="1264.6958" y1="980.9468" x2="1328.5732" y2="980.9468" gradientTransform="matrix(-1 0 0 1 4107.0996 0)">
							<stop  offset="0" style="stop-color:#AA80F9"/>
							<stop  offset="0.9964" style="stop-color:#6165D7"/>
						</linearGradient>
						<path style="fill:url(#SVGID_00000048461707639414375060000002540131770818925451_);" d="M2785.436,1062.606
							c19.552,8.686,36.651,8.869,51.295,0.547c4.282-2.433,6.412-7.436,5.441-12.264l-31.829-158.256l-31.588,157.06
							C2777.682,1055.027,2780.463,1060.397,2785.436,1062.606z"/>
						
							<linearGradient id="SVGID_00000096744022720701802320000006939292026050524337_" gradientUnits="userSpaceOnUse" x1="1292.1252" y1="876.7991" x2="1596.4445" y2="876.7991" gradientTransform="matrix(-1 0 0 1 4107.0996 0)">
							<stop  offset="0" style="stop-color:#AA80F9"/>
							<stop  offset="0.9964" style="stop-color:#6165D7"/>
						</linearGradient>
						<polygon style="fill:url(#SVGID_00000096744022720701802320000006939292026050524337_);" points="2510.655,834.235 
							2814.974,866.572 2814.974,919.363 2805.956,919.363 2805.031,873.098 						"/>
					</g>
					<path style="opacity:0.6;fill:#FFFFFF;" d="M2112.463,924.359c0,219.929,178.261,398.192,398.192,398.192
						c78.414,0,151.556-22.676,213.186-61.863c-37.444-101.864-145.702-211.209-257.761-279.738
						c-207.449-126.826-49.808-355.982,33.606-454.629C2284.835,532.135,2112.463,708.111,2112.463,924.359z"/>
				</g>
			</g>
		</g>
	</g>
</g>
</svg>
